<?xml version="1.0" encoding="utf-8"?>
<!-- Generator: Adobe Illustrator 20.0.0, SVG Export Plug-In . SVG Version: 6.00 Build 0)  -->
<svg version="1.1" id="Layer_1" xmlns="http://www.w3.org/2000/svg" xmlns:xlink="http://www.w3.org/1999/xlink" x="0px" y="0px"
	 viewBox="0 0 300 250" style="enable-background:new 0 0 300 250;" xml:space="preserve">
<style type="text/css">
	.st0{display:none;}
	.st1{display:inline;fill:#D6D2A6;}
	.st2{display:inline;fill:#F7F2C4;}
	.st3{display:inline;}
	.st4{fill:#D6D2A6;}
	.st5{fill:#B3AD8E;}
	.st6{fill:#DEDD26;}
	.st7{font-family:'MyriadPro-Bold';}
	.st8{font-size:18px;}
	.st9{display:inline;fill:#DEDD26;}
	.st10{display:inline;fill:#C9C42D;}
</style>
<g class="st0">
	<path class="st1" d="M215.3,91.8c0.1,0.1,0.5,0.4,0.5,0.5c0,0.1-1.2,0.7-1.2,0.7l-2.4-0.6L215.3,91.8z"/>
	<path class="st2" d="M212.3,92.4C212.3,92.5,212.3,92.5,212.3,92.4c0.3,0.2,0.5,0.3,0.8,0.4c8.6,4.7,19,6,29,2.6
		c19-6.4,29.2-26.9,22.8-45.8c-6.4-19-26.9-29.2-45.8-22.8c-2.6,0.9-5,2-7.2,3.3c7.7,0.1,15.1,3.2,20.7,8.4c1.5,1.4,2.8,2.9,4,4.6
		c0.1,0.2,0.3,0.4,0.4,0.6c0,0,0,0,0,0.1c0.1,0.2,0.3,0.4,0.4,0.6c0.1,0.2,0.3,0.4,0.4,0.7c0.1,0.2,0.2,0.4,0.3,0.6
		c0,0.1,0.1,0.1,0.1,0.2c0.1,0.2,0.2,0.4,0.3,0.6c0.1,0.2,0.2,0.4,0.3,0.6c0,0,0,0.1,0.1,0.1c0.1,0.2,0.2,0.4,0.3,0.6
		c0.1,0.2,0.2,0.5,0.3,0.7c0,0,0,0,0,0c0.1,0.2,0.2,0.5,0.3,0.7c0.1,0.3,0.2,0.5,0.3,0.8c0.1,0.1,0.1,0.3,0.2,0.4
		c0.1,0.1,0.1,0.3,0.1,0.4c0.1,0.2,0.1,0.4,0.2,0.6c0.5,1.5,0.9,3.1,1.2,4.6c0.1,0.5,0.2,1,0.2,1.5c1.7,14.4-6.8,28.5-21.1,33.3
		c-1.9,0.6-3.7,1.1-5.6,1.3C214.4,92.3,213.3,92.4,212.3,92.4z"/>
	<path class="st1" d="M212.3,92.4C212.3,92.5,212.3,92.5,212.3,92.4c1.1,0,2.1-0.1,3.2-0.3c1.9-0.3,3.8-0.7,5.7-1.3
		c14.3-4.8,22.8-18.9,21.1-33.3c-0.1-0.5-0.1-1-0.2-1.5c-0.3-1.5-0.7-3.1-1.2-4.6c-0.1-0.2-0.1-0.4-0.2-0.6c0-0.1-0.1-0.3-0.1-0.4
		c-0.1-0.1-0.1-0.3-0.2-0.4c-0.1-0.3-0.2-0.5-0.3-0.8c-0.1-0.2-0.2-0.5-0.3-0.7c0,0,0,0,0,0c-0.1-0.2-0.2-0.5-0.3-0.7
		c-0.1-0.2-0.2-0.4-0.3-0.6c0,0,0-0.1-0.1-0.1c-0.1-0.2-0.2-0.4-0.3-0.6c-0.1-0.2-0.2-0.4-0.3-0.6c0-0.1-0.1-0.1-0.1-0.2
		c-0.1-0.2-0.2-0.4-0.3-0.6c-0.1-0.2-0.3-0.4-0.4-0.7c-0.1-0.2-0.3-0.4-0.4-0.6c0,0,0,0,0-0.1c-0.1-0.2-0.3-0.4-0.4-0.6
		c-1.2-1.7-2.5-3.2-4-4.6c-5.8-5.4-12.7-8.4-20.7-8.4c11.2,2,20.2,9.9,24.1,21.4C241.5,68.3,229.1,86.8,212.3,92.4l3.3-0.3
		C214.4,92.3,213.3,92.4,212.3,92.4z"/>
	<g class="st3">
		<ellipse transform="matrix(0.9483 -0.3175 0.3175 0.9483 -15.2153 81.3526)" class="st4" cx="242" cy="87.4" rx="3.6" ry="3.6"/>
		
			<ellipse transform="matrix(0.9483 -0.3175 0.3175 0.9483 -15.3068 81.1788)" class="st5" cx="241.4" cy="87.5" rx="3.6" ry="3.6"/>
	</g>
	<g class="st3">
		<ellipse transform="matrix(0.9483 -0.3175 0.3175 0.9483 -0.3756 81.801)" class="st4" cx="250.8" cy="42.1" rx="2.3" ry="2.3"/>
		<ellipse transform="matrix(0.9483 -0.3175 0.3175 0.9483 -0.434 81.69)" class="st5" cx="250.4" cy="42.2" rx="2.3" ry="2.3"/>
	</g>
	<g class="st3">
		<ellipse transform="matrix(0.9483 -0.3175 0.3175 0.9483 -5.7167 82.2828)" class="st4" cx="249.6" cy="58.7" rx="1.7" ry="1.7"/>
		<ellipse transform="matrix(0.9483 -0.3175 0.3175 0.9483 -5.7595 82.2015)" class="st5" cx="249.3" cy="58.8" rx="1.7" ry="1.7"/>
	</g>
	<g class="st3">
		<ellipse transform="matrix(0.9483 -0.3175 0.3175 0.9483 1.4482 78.2507)" class="st4" cx="240.8" cy="34.7" rx="3.3" ry="3.3"/>
		<ellipse transform="matrix(0.9483 -0.3175 0.3175 0.9483 1.3648 78.0924)" class="st5" cx="240.3" cy="34.9" rx="3.3" ry="3.3"/>
	</g>
</g>
<text transform="matrix(1 0 0 1 107.3526 199.2433)"><tspan x="0" y="0" class="st6 st7 st8">...reach for</tspan><tspan x="8.3" y="21.6" class="st6 st7 st8">the stars</tspan></text>
<g class="st0">
	<polygon class="st9" points="69.2,130.8 73.3,139 82.4,140.3 75.8,146.8 77.3,155.8 69.2,151.5 61.1,155.8 62.6,146.8 56,140.3 
		65.1,139 	"/>
	<polygon class="st10" points="75.8,146.8 77.3,155.8 69.2,151.5 69.2,130.8 73.3,139 82.4,140.3 	"/>
</g>
<g class="st0">
	<polygon class="st9" points="34.6,99.4 37.6,105.6 44.4,106.6 39.5,111.4 40.7,118.2 34.6,115 28.5,118.2 29.7,111.4 24.7,106.6 
		31.5,105.6 	"/>
	<polygon class="st10" points="39.5,111.4 40.7,118.2 34.6,115 34.6,99.4 37.6,105.6 44.4,106.6 	"/>
</g>
<g class="st0">
	<polygon class="st9" points="206,115.4 209,121.5 215.8,122.5 210.9,127.3 212.1,134.1 206,130.9 199.9,134.1 201,127.3 
		196.1,122.5 202.9,121.5 	"/>
	<polygon class="st10" points="210.9,127.3 212.1,134.1 206,130.9 206,115.4 209,121.5 215.8,122.5 	"/>
</g>
<g class="st0">
	<polygon class="st9" points="273.8,11.7 276.8,17.9 283.6,18.9 278.7,23.7 279.8,30.4 273.8,27.2 267.7,30.4 268.8,23.7 
		263.9,18.9 270.7,17.9 	"/>
	<polygon class="st10" points="278.7,23.7 279.8,30.4 273.8,27.2 273.8,11.7 276.8,17.9 283.6,18.9 	"/>
</g>
<g class="st0">
	<polygon class="st9" points="262.4,115.4 267.5,125.5 278.6,127.2 270.5,135 272.5,146.2 262.4,140.9 252.4,146.2 254.4,135 
		246.3,127.2 257.4,125.5 	"/>
	<polygon class="st10" points="270.5,135 272.5,146.2 262.4,140.9 262.4,115.4 267.5,125.5 278.6,127.2 	"/>
</g>
<g class="st0">
	<polygon class="st9" points="156.8,5.2 161.3,14.3 171.3,15.7 164,22.8 165.8,32.8 156.8,28.1 147.8,32.8 149.5,22.8 142.3,15.7 
		152.3,14.3 	"/>
	<polygon class="st10" points="164,22.8 165.8,32.8 156.8,28.1 156.8,5.2 161.3,14.3 171.3,15.7 	"/>
</g>
<g class="st0">
	<polygon class="st9" points="75.8,33.6 82.2,46.6 96.5,48.7 86.1,58.8 88.6,73 75.8,66.3 63,73 65.4,58.8 55.1,48.7 69.4,46.6 	"/>
	<polygon class="st10" points="86.1,58.8 88.6,73 75.8,66.3 75.8,33.6 82.2,46.6 96.5,48.7 	"/>
</g>
<g class="st0">
	<polygon class="st9" points="142.3,86.4 149.9,101.2 167.1,103.5 154.7,115 157.6,131.3 142.3,123.6 126.9,131.3 129.9,115 
		117.4,103.5 134.6,101.2 	"/>
	<polygon class="st10" points="154.7,115 157.6,131.3 142.3,123.6 142.3,86.4 149.9,101.2 167.1,103.5 	"/>
</g>
</svg>
