<?xml version="1.0" encoding="utf-8"?>
<!-- Generator: Adobe Illustrator 20.0.0, SVG Export Plug-In . SVG Version: 6.00 Build 0)  -->
<svg version="1.1" id="Layer_1" xmlns="http://www.w3.org/2000/svg" xmlns:xlink="http://www.w3.org/1999/xlink" x="0px" y="0px"
	 viewBox="0 0 300 250" style="enable-background:new 0 0 300 250;" xml:space="preserve">
<style type="text/css">
	.st0{fill:#DEDD26;}
	.st1{font-family:'MyriadPro-Bold';}
	.st2{font-size:18px;}
	.st3{display:none;}
	.st4{display:inline;fill:#DEDD26;}
	.st5{display:inline;fill:#C9C42D;}
</style>
<text transform="matrix(1 0 0 1 82.5057 86.6905)" class="st0 st1 st2">...and enjoy the rewards</text>
<g class="st3">
	<polygon class="st4" points="27,98.4 32,108.5 43.2,110.1 35.1,118 37,129.1 27,123.9 17,129.1 18.9,118 10.8,110.1 22,108.5 	"/>
	<polygon class="st5" points="35.1,118 37,129.1 27,123.9 27,98.4 32,108.5 43.2,110.1 	"/>
</g>
<g class="st3">
	<polygon class="st4" points="59.4,57.6 63.3,65.6 72.2,66.9 65.8,73.1 67.3,81.9 59.4,77.7 51.5,81.9 53,73.1 46.6,66.9 55.4,65.6 
			"/>
	<polygon class="st5" points="65.8,73.1 67.3,81.9 59.4,77.7 59.4,57.6 63.3,65.6 72.2,66.9 	"/>
</g>
<g class="st3">
	<polygon class="st4" points="74.5,9.9 79.7,20.4 91.4,22.1 83,30.3 85,41.9 74.5,36.4 64.1,41.9 66.1,30.3 57.7,22.1 69.3,20.4 	
		"/>
	<polygon class="st5" points="83,30.3 85,41.9 74.5,36.4 74.5,9.9 79.7,20.4 91.4,22.1 	"/>
</g>
<g class="st3">
	<polygon class="st4" points="181.7,5.5 189,20.2 205.2,22.6 193.5,34.1 196.2,50.3 181.7,42.6 167.1,50.3 169.9,34.1 158.1,22.6 
		174.4,20.2 	"/>
	<polygon class="st5" points="193.5,34.1 196.3,50.3 181.7,42.6 181.7,5.5 189,20.2 205.2,22.6 	"/>
</g>
<g class="st3">
	<polygon class="st4" points="242.5,110.8 251,128 270,130.8 256.3,144.2 259.5,163.1 242.5,154.2 225.5,163.1 228.8,144.2 
		215,130.8 234,128 	"/>
	<polygon class="st5" points="256.3,144.2 259.5,163.1 242.5,154.2 242.5,110.8 251,128 270,130.8 	"/>
</g>
<g class="st3">
	<polygon class="st4" points="102.8,115 110,129.5 125.9,131.8 114.4,143 117.1,158.9 102.8,151.4 88.6,158.9 91.3,143 79.8,131.8 
		95.7,129.5 	"/>
	<polygon class="st5" points="114.4,143 117.1,158.9 102.8,151.4 102.8,115 110,129.5 125.9,131.8 	"/>
</g>
<g class="st3">
	<polygon class="st4" points="165.6,164.6 171.2,176 183.8,177.8 174.7,186.7 176.9,199.2 165.6,193.3 154.3,199.2 156.5,186.7 
		147.4,177.8 160,176 	"/>
	<polygon class="st5" points="174.7,186.7 176.9,199.2 165.6,193.3 165.6,164.6 171.2,176 183.8,177.8 	"/>
</g>
<g class="st3">
	<polygon class="st4" points="65.8,193.6 71.4,205 84,206.8 74.9,215.7 77,228.2 65.8,222.3 54.5,228.2 56.7,215.7 47.6,206.8 
		60.1,205 	"/>
	<polygon class="st5" points="74.9,215.7 77,228.2 65.8,222.3 65.8,193.6 71.4,205 84,206.8 	"/>
</g>
<g class="st3">
	<polygon class="st4" points="242.5,199.9 247.1,209.2 257.3,210.7 249.9,217.9 251.6,228 242.5,223.2 233.4,228 235.1,217.9 
		227.7,210.7 237.9,209.2 	"/>
	<polygon class="st5" points="249.9,217.9 251.7,228 242.5,223.2 242.5,199.9 247.1,209.2 257.3,210.7 	"/>
</g>
<g class="st3">
	<polygon class="st4" points="263.4,23.5 267.5,31.8 276.6,33.1 270,39.6 271.6,48.7 263.4,44.4 255.2,48.7 256.7,39.6 250.1,33.1 
		259.3,31.8 	"/>
	<polygon class="st5" points="270,39.6 271.6,48.7 263.4,44.4 263.4,23.5 267.5,31.8 276.6,33.1 	"/>
</g>
</svg>
