<?xml version="1.0" encoding="utf-8"?>
<!-- Generator: Adobe Illustrator 20.0.0, SVG Export Plug-In . SVG Version: 6.00 Build 0)  -->
<svg version="1.1" id="Layer_1" xmlns="http://www.w3.org/2000/svg" xmlns:xlink="http://www.w3.org/1999/xlink" x="0px" y="0px"
	 viewBox="0 0 300 250" style="enable-background:new 0 0 300 250;" xml:space="preserve">
<style type="text/css">
	.st0{display:none;}
	.st1{display:inline;fill:#D6D2A6;}
	.st2{display:inline;fill:#F7F2C4;}
	.st3{display:inline;}
	.st4{fill:#D6D2A6;}
	.st5{fill:#B3AD8E;}
	.st6{fill:#DEDD26;}
	.st7{font-family:'MyriadPro-Bold';}
	.st8{font-size:18px;}
	.st9{fill:#F8991D;}
	.st10{fill:#FFCD05;}
	.st11{display:inline;fill:#46BB88;}
	.st12{display:inline;fill:#DEDD26;}
	.st13{display:inline;fill:#C5A645;}
	.st14{display:inline;fill:#4D4B40;}
	.st15{display:inline;fill:#827E35;}
	.st16{display:inline;fill:#91618C;}
	.st17{display:inline;fill:#A9A735;}
	.st18{display:inline;fill:#BCB832;}
</style>
<g class="st0">
	<path class="st1" d="M229.7,82c0.1,0.1,0.5,0.4,0.5,0.5c0,0.1-1.2,0.7-1.2,0.7l-2.4-0.6L229.7,82z"/>
	<path class="st2" d="M226.6,82.6C226.6,82.6,226.6,82.6,226.6,82.6c0.3,0.2,0.5,0.3,0.8,0.4c8.6,4.7,19,6,29,2.6
		c19-6.4,29.2-26.9,22.8-45.8c-6.4-19-26.9-29.2-45.8-22.8c-2.6,0.9-5,2-7.2,3.3c7.7,0.1,15.1,3.2,20.7,8.4c1.5,1.4,2.8,2.9,4,4.6
		c0.1,0.2,0.3,0.4,0.4,0.6c0,0,0,0,0,0.1c0.1,0.2,0.3,0.4,0.4,0.6c0.1,0.2,0.3,0.4,0.4,0.7c0.1,0.2,0.2,0.4,0.3,0.6
		c0,0.1,0.1,0.1,0.1,0.2c0.1,0.2,0.2,0.4,0.3,0.6c0.1,0.2,0.2,0.4,0.3,0.6c0,0,0,0.1,0.1,0.1c0.1,0.2,0.2,0.4,0.3,0.6
		c0.1,0.2,0.2,0.5,0.3,0.7c0,0,0,0,0,0c0.1,0.2,0.2,0.5,0.3,0.7c0.1,0.3,0.2,0.5,0.3,0.8c0.1,0.1,0.1,0.3,0.2,0.4
		c0.1,0.1,0.1,0.3,0.1,0.4c0.1,0.2,0.1,0.4,0.2,0.6c0.5,1.5,0.9,3.1,1.2,4.6c0.1,0.5,0.2,1,0.2,1.5c1.7,14.4-6.8,28.5-21.1,33.3
		c-1.9,0.6-3.7,1.1-5.6,1.3C228.8,82.5,227.7,82.6,226.6,82.6z"/>
	<path class="st1" d="M226.6,82.6C226.6,82.6,226.6,82.6,226.6,82.6c1.1,0,2.1-0.1,3.2-0.3c1.9-0.3,3.8-0.7,5.7-1.3
		c14.3-4.8,22.8-18.9,21.1-33.3c-0.1-0.5-0.1-1-0.2-1.5c-0.3-1.5-0.7-3.1-1.2-4.6c-0.1-0.2-0.1-0.4-0.2-0.6c0-0.1-0.1-0.3-0.1-0.4
		c-0.1-0.1-0.1-0.3-0.2-0.4c-0.1-0.3-0.2-0.5-0.3-0.8c-0.1-0.2-0.2-0.5-0.3-0.7c0,0,0,0,0,0c-0.1-0.2-0.2-0.5-0.3-0.7
		c-0.1-0.2-0.2-0.4-0.3-0.6c0,0,0-0.1-0.1-0.1c-0.1-0.2-0.2-0.4-0.3-0.6c-0.1-0.2-0.2-0.4-0.3-0.6c0-0.1-0.1-0.1-0.1-0.2
		c-0.1-0.2-0.2-0.4-0.3-0.6c-0.1-0.2-0.3-0.4-0.4-0.7c-0.1-0.2-0.3-0.4-0.4-0.6c0,0,0,0,0-0.1c-0.1-0.2-0.3-0.4-0.4-0.6
		c-1.2-1.7-2.5-3.2-4-4.6c-5.8-5.4-12.7-8.4-20.7-8.4c11.2,2,20.2,9.9,24.1,21.4C255.9,58.5,243.4,77,226.6,82.6l3.3-0.3
		C228.8,82.5,227.7,82.6,226.6,82.6z"/>
	<g class="st3">
		
			<ellipse transform="matrix(0.9483 -0.3175 0.3175 0.9483 -11.3549 85.4028)" class="st4" cx="256.3" cy="77.5" rx="3.6" ry="3.6"/>
		<ellipse transform="matrix(0.9483 -0.3175 0.3175 0.9483 -11.4464 85.229)" class="st5" cx="255.8" cy="77.7" rx="3.6" ry="3.6"/>
	</g>
	<g class="st3">
		<ellipse transform="matrix(0.9483 -0.3175 0.3175 0.9483 3.4848 85.8511)" class="st4" cx="265.1" cy="32.2" rx="2.3" ry="2.3"/>
		<ellipse transform="matrix(0.9483 -0.3175 0.3175 0.9483 3.4264 85.7402)" class="st5" cx="264.8" cy="32.4" rx="2.3" ry="2.3"/>
	</g>
	<g class="st3">
		<ellipse transform="matrix(0.9483 -0.3175 0.3175 0.9483 -1.8563 86.3329)" class="st4" cx="263.9" cy="48.9" rx="1.7" ry="1.7"/>
		<ellipse transform="matrix(0.9483 -0.3175 0.3175 0.9483 -1.8991 86.2516)" class="st5" cx="263.7" cy="49" rx="1.7" ry="1.7"/>
	</g>
	<g class="st3">
		<ellipse transform="matrix(0.9483 -0.3175 0.3175 0.9483 5.3085 82.3008)" class="st4" cx="255.1" cy="24.9" rx="3.3" ry="3.3"/>
		<ellipse transform="matrix(0.9483 -0.3175 0.3175 0.9483 5.2252 82.1425)" class="st5" cx="254.6" cy="25" rx="3.3" ry="3.3"/>
	</g>
</g>
<text transform="matrix(1 0 0 1 30.4208 67.0549)" class="st6 st7 st8">In life you should...</text>
<g class="st0">
	<g class="st3">
		<rect x="140" y="103.2" class="st9" width="69.6" height="147.6"/>
		<rect x="147.7" y="184.6" class="st10" width="11" height="20"/>
		<rect x="162.1" y="184.6" class="st10" width="11" height="20"/>
		<rect x="176.5" y="184.6" class="st10" width="11" height="20"/>
		<rect x="190.9" y="184.6" class="st10" width="11" height="20"/>
		<rect x="147.7" y="159.7" class="st10" width="11" height="20"/>
		<rect x="162.1" y="159.7" class="st10" width="11" height="20"/>
		<rect x="176.5" y="159.7" class="st10" width="11" height="20"/>
		<rect x="190.9" y="159.7" class="st10" width="11" height="20"/>
		<rect x="147.7" y="135.1" class="st10" width="11" height="20"/>
		<rect x="162.1" y="135.1" class="st10" width="11" height="20"/>
		<rect x="176.5" y="135.1" class="st10" width="11" height="20"/>
		<rect x="190.9" y="135.1" class="st10" width="11" height="20"/>
		<rect x="147.7" y="110.2" class="st10" width="11" height="20"/>
		<rect x="162.1" y="110.2" class="st10" width="11" height="20"/>
		<rect x="176.5" y="110.2" class="st10" width="11" height="20"/>
		<rect x="190.9" y="110.2" class="st10" width="11" height="20"/>
		<rect x="147.7" y="220.7" class="st10" width="54.2" height="30.1"/>
	</g>
	<rect x="262.1" y="204.2" class="st11" width="42" height="46.6"/>
	<rect x="-2.1" y="166.7" class="st11" width="48.8" height="84"/>
	<polyline class="st11" points="39.2,153.5 22.3,123.9 -2.1,166.7 46.7,166.7 22.3,123.9 -2.1,166.7 46.7,166.7 39.2,153.5 	"/>
	<rect x="25.3" y="169.5" class="st12" width="16.4" height="16.4"/>
	<rect x="25.3" y="192.3" class="st12" width="16.4" height="16.4"/>
	<rect x="39.7" y="181.9" class="st13" width="41.1" height="68.8"/>
	<rect x="124.6" y="147" class="st14" width="34.9" height="103.7"/>
	<polygon class="st14" points="142.1,122.5 167.9,141.2 158,171.5 126.2,171.5 116.3,141.2 	"/>
	<polygon class="st15" points="142.1,132.5 158.4,144.3 152.2,163.5 132,163.5 125.8,144.3 	"/>
	<rect x="51.1" y="164.6" class="st13" width="18.3" height="18.3"/>
	<polygon class="st12" points="80.8,158.3 80.8,250.8 124.6,250.8 124.6,192.7 	"/>
	<rect x="220.2" y="156.2" class="st12" width="42.4" height="94.6"/>
	<rect x="190" y="189.9" class="st16" width="39.1" height="60.8"/>
	<rect x="224" y="143.7" class="st17" width="34.9" height="12.4"/>
	<polygon class="st18" points="241.5,113.3 250.2,128.5 259,143.7 241.5,143.7 223.9,143.7 232.7,128.5 	"/>
	<rect x="3.2" y="169.5" class="st12" width="16.4" height="16.4"/>
	<rect x="3.2" y="192.3" class="st12" width="16.4" height="16.4"/>
	<rect x="13.9" y="222.2" class="st12" width="16.2" height="28.5"/>
	<rect x="65.3" y="188.5" class="st15" width="10.9" height="10.9"/>
	<rect x="268.8" y="206.6" class="st15" width="9.1" height="9.1"/>
	<rect x="268.8" y="218.6" class="st15" width="9.1" height="9.1"/>
	<rect x="268.8" y="230.4" class="st15" width="9.1" height="9.1"/>
	<rect x="285.8" y="206.6" class="st15" width="9.1" height="9.1"/>
	<rect x="285.8" y="218.6" class="st15" width="9.1" height="9.1"/>
	<rect x="285.8" y="230.4" class="st15" width="9.1" height="9.1"/>
	<rect x="232.6" y="164.7" class="st15" width="17.7" height="17.7"/>
	<rect x="232.6" y="193.3" class="st15" width="17.7" height="17.7"/>
	<rect x="232.6" y="221.8" class="st15" width="17.7" height="17.7"/>
	<rect x="44.4" y="188.5" class="st15" width="10.9" height="10.9"/>
	<rect x="65.3" y="206.1" class="st15" width="10.9" height="10.9"/>
	<rect x="44.4" y="206.1" class="st15" width="10.9" height="10.9"/>
	<rect x="107.8" y="210.9" class="st15" width="10.9" height="10.9"/>
	<rect x="135" y="170.6" class="st12" width="14.3" height="14.3"/>
	<rect x="135" y="190.6" class="st12" width="14.3" height="14.3"/>
	<rect x="135" y="208.7" class="st12" width="14.3" height="14.3"/>
	<rect x="135" y="227.5" class="st12" width="14.3" height="14.3"/>
	<rect x="86.8" y="210.9" class="st15" width="10.9" height="10.9"/>
	<rect x="107.8" y="226" class="st15" width="10.9" height="10.9"/>
	<rect x="86.8" y="226" class="st15" width="10.9" height="10.9"/>
	<rect x="65.3" y="222" class="st15" width="10.9" height="10.9"/>
	<rect x="44.4" y="222" class="st15" width="10.9" height="10.9"/>
	<polygon class="st15" points="86.1,176.9 86.1,206.1 119.4,206.1 	"/>
	<rect x="194.6" y="195.5" class="st12" width="4.2" height="51.1"/>
	<rect x="203.4" y="195.5" class="st12" width="4.2" height="51.1"/>
	<rect x="210.9" y="195.5" class="st12" width="4.2" height="51.1"/>
	<rect x="219.7" y="195.5" class="st12" width="4.2" height="51.1"/>
	<rect x="229.2" y="148" class="st12" width="25.1" height="4.4"/>
	<circle class="st15" cx="60.3" cy="173.7" r="5.1"/>
</g>
</svg>
