<?xml version="1.0" encoding="utf-8"?>
<!-- Generator: Adobe Illustrator 20.0.0, SVG Export Plug-In . SVG Version: 6.00 Build 0)  -->
<svg version="1.1" id="Layer_1" xmlns="http://www.w3.org/2000/svg" xmlns:xlink="http://www.w3.org/1999/xlink" x="0px" y="0px"
	 viewBox="0 0 300 250" style="enable-background:new 0 0 300 250;" xml:space="preserve">
<style type="text/css">
	.st0{display:none;fill:#DEDD26;}
	.st1{fill:#DEDD26;}
</style>
<path class="st0" d="M269.8,174.1l-8.3,83.3c0,0-7.6,3.3-9.1,3.2l-33.2-1.7l-4-1.5l-8.3-82.8c6.5-0.9,13-1.4,19.6-1.1
	c3,0.1,6.1,0.4,9,1.2c3,0.8,6,1.6,9,2.3c1.4,0.3,2.9,0.3,4.3,0.3c1.5,0,3.1,0,4.6-0.1C259,176.8,264.4,175.3,269.8,174.1z"/>
<polygon class="st1" points="228.2,167 230.1,170.8 234.3,171.4 231.2,174.4 232,178.6 228.2,176.6 224.5,178.6 225.2,174.4 
	222.1,171.4 226.3,170.8 "/>
<polygon class="st1" points="240.7,137.8 242.5,141.6 246.7,142.2 243.7,145.2 244.4,149.3 240.7,147.4 236.9,149.3 237.6,145.2 
	234.6,142.2 238.8,141.6 "/>
<polygon class="st1" points="249.3,159 251.2,162.8 255.4,163.4 252.3,166.4 253.1,170.6 249.3,168.6 245.5,170.6 246.3,166.4 
	243.2,163.4 247.4,162.8 "/>
<polygon class="st1" points="228.2,150.7 229.4,153.1 232.1,153.5 230.2,155.4 230.6,158.1 228.2,156.8 225.8,158.1 226.3,155.4 
	224.3,153.5 227,153.1 "/>
</svg>
